<svg width="96" height="34" viewBox="0 0 96 34" fill="none" xmlns="http://www.w3.org/2000/svg">
<path d="M51.5396 19.4685C51.5396 19.4488 51.5396 19.4278 51.5297 19.4008C51.2067 17.3921 50.2805 15.5255 48.8711 14.0428C47.4616 12.5601 45.6339 11.5296 43.6246 11.0847C42.1689 10.7648 40.6598 10.7648 39.2042 11.0847C37.2936 11.5088 35.5453 12.4626 34.1646 13.8341C32.784 15.2057 31.8283 16.9379 31.4099 18.8273C31.3676 19.0205 31.3315 19.2125 31.2991 19.4045C31.2991 19.4315 31.2991 19.4525 31.2891 19.4721C31.099 20.6775 31.1311 21.9069 31.3838 23.101C31.4468 23.4084 31.5258 23.7123 31.6205 24.0116C32.2586 26.088 33.5549 27.9072 35.3186 29.2011C37.0822 30.4951 39.2199 31.1955 41.4169 31.1993C43.0635 31.1978 44.6855 30.8039 46.1451 30.0509C47.6046 29.2978 48.8585 28.208 49.8004 26.8739C49.8299 26.5736 49.7832 26.2707 49.6644 25.9927C49.5456 25.7147 49.3585 25.4704 49.12 25.2817C48.8816 25.0931 48.5993 24.9662 48.2987 24.9125C47.998 24.8587 47.6886 24.8798 47.3983 24.9739V24.985C47.3448 25.0625 47.2924 25.1413 47.2339 25.2188C47.2226 25.2266 47.2136 25.2372 47.2077 25.2496C47.1504 25.3234 47.0918 25.3911 47.0283 25.4637C47.0118 25.4766 46.9978 25.4924 46.9872 25.5104C46.9237 25.5732 46.8626 25.6409 46.7966 25.7024C46.7783 25.7171 46.7609 25.7327 46.7442 25.7492C46.6807 25.8119 46.6072 25.8722 46.5387 25.9313C46.5228 25.9471 46.5053 25.9611 46.4863 25.9731C46.3917 26.047 46.302 26.1146 46.2073 26.1811C46.1838 26.1939 46.1624 26.2101 46.1437 26.2291C46.0043 26.3264 45.86 26.4168 45.7114 26.4998C45.6902 26.5146 45.6691 26.5256 45.6479 26.5404C45.5793 26.5773 45.5108 26.6081 45.4423 26.645C45.395 26.6708 45.3476 26.6918 45.3003 26.7127C45.2317 26.7496 45.1632 26.7754 45.0897 26.8111C45.0424 26.832 44.99 26.853 44.9365 26.8739C44.863 26.9046 44.7944 26.9366 44.7209 26.9625C44.6686 26.9834 44.615 26.9994 44.5627 27.0191L44.326 27.0978C44.2724 27.1138 44.2251 27.1286 44.1727 27.1397C44.088 27.1655 43.9983 27.1914 43.9149 27.2123C43.8675 27.2283 43.8251 27.2332 43.7778 27.2492L43.4875 27.3107C43.4531 27.3187 43.4181 27.324 43.3829 27.3267C43.2716 27.3522 43.1607 27.3731 43.0502 27.3895C43.029 27.3895 43.0128 27.3895 42.9979 27.3895C42.8235 27.4153 42.6503 27.4313 42.4709 27.4412C42.3812 27.4522 42.2915 27.4621 42.2018 27.467C42.2018 27.467 42.1918 27.467 42.1856 27.467H42.1108C41.9862 27.467 41.8616 27.4781 41.7371 27.4781C41.5053 27.4781 41.2786 27.467 41.0518 27.4522C40.9783 27.4412 40.9048 27.4362 40.8313 27.4264C40.6781 27.4153 40.531 27.3944 40.3828 27.3735C40.3013 27.3628 40.2206 27.3472 40.1411 27.3267C40.004 27.3058 39.872 27.275 39.7399 27.2492C39.6614 27.2283 39.5867 27.2074 39.5082 27.1914C39.3711 27.1557 39.2453 27.1138 39.1132 27.0769C39.0597 27.0622 39.0123 27.0412 38.96 27.0252C38.9544 27.0198 38.9478 27.0156 38.9405 27.0128C38.9332 27.0101 38.9254 27.0089 38.9176 27.0092H38.9077C38.7494 26.9526 38.5962 26.8862 38.4492 26.8222C38.4018 26.8013 38.3483 26.7853 38.3009 26.7644C38.1172 26.6817 37.938 26.5897 37.7639 26.4887C37.7054 26.458 37.6531 26.421 37.6007 26.3903C37.4761 26.3177 37.374 26.2438 37.2631 26.1712C37.1996 26.1245 37.1385 26.0777 37.0787 26.031C36.9872 25.9609 36.8995 25.8861 36.8158 25.807L36.6464 25.6507C36.5567 25.5621 36.467 25.4637 36.3885 25.3702C36.3511 25.3332 36.315 25.2914 36.2826 25.2557C36.1785 25.1231 36.0836 24.9837 35.9985 24.8386C35.9674 24.7869 35.9462 24.7401 35.92 24.6934C35.8615 24.5888 35.8141 24.4854 35.7668 24.3808C35.7456 24.3242 35.7244 24.2664 35.7082 24.2147C35.6674 24.1029 35.6358 23.9881 35.6135 23.8714C35.6135 23.8603 35.6135 23.8504 35.6036 23.8394C35.5547 23.5868 35.521 23.3317 35.5027 23.0752H49.5163C50.0834 23.0765 50.6279 22.856 51.0309 22.4619C51.4338 22.0679 51.6624 21.5323 51.6667 20.9722V20.9562C51.6592 20.458 51.6167 19.9609 51.5396 19.4685ZM47.2825 18.7658C47.2837 18.883 47.2554 18.9987 47.2002 19.1024C47.1449 19.2062 47.0645 19.2947 46.966 19.3602H46.9548C46.9323 19.3757 46.9075 19.3877 46.8813 19.3959C46.8668 19.4069 46.8509 19.4161 46.834 19.4229C46.791 19.4396 46.7468 19.4531 46.7019 19.4635C46.6553 19.4743 46.6077 19.4797 46.5599 19.4795H35.8814C35.8668 19.4792 35.8523 19.4758 35.8391 19.4697C35.8291 19.4697 35.8179 19.4635 35.8079 19.4635L35.7132 19.4488C35.6809 19.4405 35.6492 19.4298 35.6185 19.4168C35.6064 19.412 35.5954 19.4049 35.5861 19.3959C35.4893 19.3532 35.404 19.2887 35.3371 19.2074C35.2702 19.1262 35.2237 19.0306 35.2012 18.9282C35.2074 18.9282 35.2074 18.9282 35.2074 18.9172C35.192 18.8648 35.1849 18.8105 35.1862 18.756C35.2223 18.6058 35.2597 18.4594 35.3021 18.3142C35.3282 18.2416 35.3494 18.1678 35.3756 18.1001C35.4279 17.9598 35.4865 17.8195 35.5438 17.6842C35.55 17.6682 35.56 17.6583 35.565 17.6423C35.5973 17.5857 35.6235 17.5193 35.6547 17.4602C35.6812 17.3987 35.7129 17.3394 35.7493 17.283C36.4296 15.9823 37.6892 14.9671 39.244 14.4934C39.3063 14.4724 39.3798 14.4515 39.4484 14.4306C39.5991 14.3845 39.7521 14.3463 39.9069 14.3162C39.9392 14.3162 39.9704 14.3014 40.0028 14.2952L40.4239 14.2337C40.4324 14.2365 40.4416 14.2365 40.4501 14.2337H40.4712C40.4812 14.2337 40.4974 14.2337 40.5086 14.2337H40.4663L40.6083 14.2189H40.6556C40.6718 14.2189 40.693 14.2128 40.7142 14.2128H40.7403C40.8188 14.2029 40.8923 14.198 40.9721 14.1919C41.0717 14.1919 41.1714 14.182 41.2773 14.182C41.5451 14.1838 41.8126 14.201 42.0784 14.2337H42.0099C42.0261 14.2337 42.0361 14.2337 42.0523 14.2337H42.0834C42.1681 14.2448 42.2516 14.2608 42.3326 14.2706L42.5282 14.3014C42.5643 14.3075 42.6067 14.3223 42.6441 14.3285C42.7686 14.3543 42.8932 14.3801 43.0178 14.4158C43.0701 14.4269 43.1175 14.4478 43.1711 14.4577C43.2246 14.4675 43.2707 14.4897 43.3231 14.5044C43.3754 14.5192 43.429 14.5413 43.4813 14.5573C44.7795 14.9915 45.8857 15.8558 46.6122 17.0037C46.6595 17.0763 46.7006 17.1538 46.743 17.2276C46.7539 17.249 46.7664 17.2696 46.7804 17.2892C46.8016 17.3261 46.8227 17.3679 46.8439 17.4036C46.8576 17.4402 46.8751 17.4753 46.8962 17.5082C47.0466 17.8086 47.1684 18.122 47.26 18.4446V18.6378C47.269 18.674 47.2761 18.7105 47.2812 18.7474L47.2825 18.7658Z" fill="#0064A7"/>
<path d="M73.8409 19.4685C73.8409 19.4488 73.8409 19.4278 73.8309 19.4008C73.508 17.3921 72.5818 15.5255 71.1723 14.0428C69.7629 12.5601 67.9351 11.5296 65.9258 11.0847C64.4702 10.7648 62.9611 10.7648 61.5054 11.0847C59.5949 11.5088 57.8466 12.4626 56.4659 13.8341C55.0852 15.2057 54.1296 16.9379 53.7112 18.8273C53.6689 19.0205 53.6327 19.2125 53.6003 19.4045C53.6003 19.4315 53.6003 19.4525 53.5904 19.4721C53.4003 20.6775 53.4324 21.9069 53.685 23.101C53.7481 23.4084 53.8271 23.7123 53.9218 24.0116C54.5599 26.088 55.8562 27.9072 57.6198 29.2011C59.3834 30.4951 61.5211 31.1955 63.7181 31.1993C65.3648 31.1978 66.9868 30.8039 68.4463 30.0509C69.9058 29.2978 71.1598 28.208 72.1016 26.8739C72.1311 26.5736 72.0844 26.2707 71.9656 25.9927C71.8468 25.7147 71.6597 25.4704 71.4213 25.2817C71.1828 25.0931 70.9005 24.9662 70.5999 24.9125C70.2993 24.8587 69.9898 24.8798 69.6996 24.9739V24.985C69.646 25.0625 69.5937 25.1413 69.5351 25.2188C69.5238 25.2266 69.5148 25.2372 69.5089 25.2496C69.4516 25.3234 69.3931 25.3911 69.3295 25.4637C69.313 25.4766 69.299 25.4924 69.2884 25.5104C69.2249 25.5732 69.1638 25.6409 69.0978 25.7024C69.0796 25.7171 69.0621 25.7327 69.0455 25.7492C68.9819 25.8119 68.9084 25.8722 68.8399 25.9313C68.824 25.9471 68.8065 25.9611 68.7876 25.9731C68.6929 26.047 68.6032 26.1146 68.5085 26.1811C68.485 26.1939 68.4636 26.2101 68.445 26.2291C68.3055 26.3264 68.1613 26.4168 68.0127 26.4998C67.9915 26.5146 67.9703 26.5256 67.9491 26.5404C67.8806 26.5773 67.8121 26.6081 67.7435 26.645C67.6962 26.6708 67.6489 26.6918 67.6015 26.7127C67.533 26.7496 67.4645 26.7754 67.391 26.8111C67.3436 26.832 67.2913 26.853 67.2377 26.8739C67.1642 26.9046 67.0957 26.9366 67.0222 26.9625C66.9699 26.9834 66.9163 26.9994 66.8639 27.0191L66.6272 27.0978C66.5737 27.1138 66.5263 27.1286 66.474 27.1397C66.3893 27.1655 66.2996 27.1914 66.2161 27.2123C66.1687 27.2283 66.1264 27.2332 66.079 27.2492L65.7888 27.3107C65.7543 27.3187 65.7194 27.324 65.6841 27.3267C65.5736 27.3522 65.4628 27.3731 65.3515 27.3895C65.3303 27.3895 65.3141 27.3895 65.2991 27.3895C65.1247 27.4153 64.9515 27.4313 64.7721 27.4412C64.6824 27.4522 64.5927 27.4621 64.503 27.467C64.503 27.467 64.493 27.467 64.4868 27.467H64.4121C64.2875 27.467 64.1629 27.4781 64.0383 27.4781C63.8066 27.4781 63.5798 27.467 63.3531 27.4522C63.2796 27.4412 63.206 27.4362 63.1325 27.4264C62.9793 27.4153 62.8323 27.3944 62.684 27.3735C62.6026 27.3628 62.5219 27.3472 62.4423 27.3267C62.3053 27.3058 62.1732 27.275 62.0412 27.2492C61.9627 27.2283 61.8879 27.2074 61.8094 27.1914C61.6724 27.1557 61.5465 27.1138 61.4145 27.0769C61.3609 27.0622 61.3136 27.0412 61.2612 27.0252C61.2557 27.0198 61.2491 27.0156 61.2418 27.0128C61.2345 27.0101 61.2267 27.0089 61.2189 27.0092H61.2089C61.0507 26.9526 60.8974 26.8862 60.7504 26.8222C60.7031 26.8013 60.6495 26.7853 60.6022 26.7644C60.4185 26.6817 60.2393 26.5897 60.0652 26.4887C60.0066 26.458 59.9543 26.421 59.902 26.3903C59.7774 26.3177 59.6752 26.2438 59.5644 26.1712C59.5008 26.1245 59.4398 26.0777 59.38 26.031C59.2885 25.9609 59.2007 25.8861 59.1171 25.807L58.9476 25.6507C58.8579 25.5621 58.7682 25.4637 58.6897 25.3702C58.6524 25.3332 58.6162 25.2914 58.5838 25.2557C58.4798 25.1231 58.3849 24.9837 58.2998 24.8386C58.2686 24.7869 58.2475 24.7401 58.2213 24.6934C58.1627 24.5888 58.1154 24.4854 58.0681 24.3808C58.0469 24.3242 58.0257 24.2664 58.0095 24.2147C57.9687 24.1029 57.937 23.9881 57.9148 23.8714C57.9148 23.8603 57.9148 23.8504 57.9048 23.8394C57.856 23.5868 57.8223 23.3317 57.8039 23.0752H71.8176C72.3846 23.0765 72.9292 22.856 73.3321 22.4619C73.7351 22.0679 73.9637 21.5323 73.9679 20.9722V20.9562C73.9604 20.458 73.918 19.9609 73.8409 19.4685ZM69.5837 18.7658C69.5849 18.883 69.5566 18.9987 69.5014 19.1024C69.4462 19.2062 69.3657 19.2947 69.2672 19.3602H69.256C69.2335 19.3757 69.2087 19.3877 69.1825 19.3959C69.1681 19.4069 69.1521 19.4161 69.1352 19.4229C69.0922 19.4396 69.0481 19.4531 69.0031 19.4635C68.9566 19.4743 68.9089 19.4797 68.8611 19.4795H58.1827C58.168 19.4792 58.1536 19.4758 58.1403 19.4697C58.1303 19.4697 58.1191 19.4635 58.1092 19.4635L58.0145 19.4488C57.9821 19.4405 57.9505 19.4298 57.9198 19.4168C57.9077 19.412 57.8966 19.4049 57.8874 19.3959C57.7906 19.3532 57.7053 19.2887 57.6384 19.2074C57.5715 19.1262 57.5249 19.0306 57.5024 18.9282C57.5086 18.9282 57.5087 18.9282 57.5087 18.9172C57.4933 18.8648 57.4861 18.8105 57.4875 18.756C57.5236 18.6058 57.561 18.4594 57.6033 18.3142C57.6295 18.2416 57.6507 18.1678 57.6768 18.1001C57.7292 17.9598 57.7877 17.8195 57.845 17.6842C57.8513 17.6682 57.8612 17.6583 57.8662 17.6423C57.8986 17.5857 57.9248 17.5193 57.9559 17.4602C57.9825 17.3987 58.0142 17.3394 58.0506 17.283C58.7309 15.9823 59.9904 14.9671 61.5391 14.4934C61.6014 14.4724 61.6749 14.4515 61.7434 14.4306C61.8941 14.3845 62.0471 14.3463 62.2019 14.3162C62.2343 14.3162 62.2654 14.3014 62.2978 14.2952L62.7189 14.2337C62.7274 14.2365 62.7366 14.2365 62.7451 14.2337H62.7663C62.7762 14.2337 62.7924 14.2337 62.8036 14.2337H62.7613L62.9033 14.2189H62.9507C62.9668 14.2189 62.988 14.2128 63.0092 14.2128H63.0416C63.1201 14.2029 63.1936 14.198 63.2733 14.1919C63.373 14.1919 63.4727 14.182 63.5786 14.182C63.8464 14.1838 64.1139 14.201 64.3797 14.2337H64.3111C64.3273 14.2337 64.3373 14.2337 64.3535 14.2337H64.3847C64.4694 14.2448 64.5529 14.2608 64.6338 14.2706L64.8294 14.3014C64.8656 14.3075 64.9079 14.3223 64.9453 14.3285C65.0699 14.3543 65.1945 14.3801 65.3191 14.4158C65.3714 14.4269 65.4187 14.4478 65.4723 14.4577C65.5259 14.4675 65.572 14.4897 65.6243 14.5044C65.6766 14.5192 65.7302 14.5413 65.7825 14.5573C67.0807 14.9915 68.1869 15.8558 68.9134 17.0037C68.9608 17.0763 69.0019 17.1538 69.0442 17.2276C69.0551 17.249 69.0676 17.2696 69.0816 17.2892C69.1028 17.3261 69.124 17.3679 69.1452 17.4036C69.1588 17.4402 69.1763 17.4753 69.1975 17.5082C69.3478 17.8086 69.4696 18.122 69.5613 18.4446V18.6378C69.5703 18.674 69.5773 18.7105 69.5825 18.7474L69.5837 18.7658Z" fill="#0064A7"/>
<path d="M95.2688 23.8997L95.284 23.8554C95.2868 23.845 95.2901 23.8347 95.2941 23.8246C95.2984 23.813 95.3017 23.8011 95.3042 23.7889C95.2928 23.8271 95.2802 23.8652 95.2676 23.9034L95.2688 23.8997Z" fill="white"/>
<path d="M94.1724 15.9454C94.185 15.9664 94.1976 15.9873 94.2115 16.007L94.1736 15.9479L94.1724 15.9454Z" fill="#0064A7"/>
<path d="M85.6655 10.8644C79.9644 10.8644 75.3372 15.4175 75.3372 21.014C75.3372 21.2478 75.3484 21.4878 75.3633 21.7166V33.2505C75.3637 33.4494 75.4439 33.64 75.5864 33.7805C75.7288 33.921 75.922 33.9999 76.1233 33.9999H77.9361C78.1351 33.9964 78.3249 33.916 78.4646 33.7759C78.6044 33.6358 78.683 33.4472 78.6836 33.2505V28.4982C80.5893 30.218 83.0791 31.1687 85.6605 31.1623C91.3679 31.1623 95.9951 26.6241 95.9951 21.014C95.9951 15.4039 91.3729 10.8644 85.6655 10.8644ZM87.087 27.4596C86.9625 27.4879 86.8379 27.5113 86.7133 27.5322C85.7542 27.6916 84.7715 27.6427 83.8335 27.3886C82.8956 27.1346 82.025 26.6817 81.2824 26.0614C80.5398 25.441 79.943 24.6683 79.5337 23.7969C79.1244 22.9255 78.9123 21.9764 78.9123 21.0158C78.9123 20.0552 79.1244 19.1062 79.5337 18.2348C79.943 17.3634 80.5398 16.5906 81.2824 15.9703C82.025 15.35 82.8956 14.8971 83.8335 14.643C84.7715 14.389 85.7542 14.34 86.7133 14.4995C86.8379 14.5204 86.9625 14.5438 87.087 14.5721C88.5717 14.8976 89.8995 15.7135 90.8511 16.8851C91.8028 18.0567 92.3215 19.5138 92.3215 21.0158C92.3215 22.5179 91.8028 23.975 90.8511 25.1466C89.8995 26.3181 88.5717 27.134 87.087 27.4596ZM94.2322 26.106C94.1998 26.1552 94.1686 26.2044 94.135 26.2537C94.12 26.277 94.1051 26.2992 94.0889 26.3213C94.0727 26.3435 94.0665 26.357 94.054 26.3742C94.0415 26.3915 94.0054 26.4444 93.9805 26.4801L93.973 26.4912C93.8609 26.6462 93.7438 26.7963 93.6242 26.944C93.5893 26.9871 93.5532 27.0264 93.517 27.067C93.4672 27.1237 93.4199 27.1827 93.3688 27.2381C93.3613 27.2479 93.3526 27.2565 93.3439 27.2664L93.3027 27.3119L93.2828 27.3341L93.2591 27.3575L93.1806 27.4411L93.1495 27.4744L93.0648 27.5605C92.9963 27.6306 92.9252 27.7008 92.8542 27.7672C92.8516 27.7711 92.8482 27.7744 92.8443 27.7771C92.8318 27.7906 92.8181 27.8029 92.8044 27.8152C92.6798 27.9235 92.5664 28.0293 92.4431 28.1315L92.4854 28.0736L92.5041 28.0564L92.5216 28.0404C92.5527 28.0072 92.5839 27.9715 92.615 27.9358C92.6462 27.9001 92.6761 27.8644 92.7072 27.8288C92.7894 27.7303 92.8717 27.6282 92.9564 27.526L93.0424 27.4202C93.071 27.3858 93.0997 27.3501 93.1271 27.3132L93.1645 27.2615C93.1906 27.227 93.2155 27.1913 93.2417 27.1556C93.2679 27.12 93.3127 27.0597 93.3476 27.0104L93.3563 26.9981C93.3638 26.9871 93.3713 26.9772 93.3775 26.9661L93.385 26.9551L93.4111 26.9169L93.5083 26.7754L93.5606 26.6991C94.2738 25.6986 94.7817 24.5699 95.0557 23.3766C95.0592 23.367 95.0621 23.3571 95.0644 23.3471C95.0744 23.3077 95.0831 23.2671 95.0931 23.2241L95.108 23.1638C95.1155 23.133 95.1242 23.1035 95.1317 23.0727C95.1311 23.069 95.1311 23.0653 95.1317 23.0616C95.1317 23.0309 95.1441 23.0013 95.1516 22.9706C95.1591 22.9398 95.1653 22.9053 95.1728 22.8721L95.1878 22.8057C95.1878 22.7712 95.2015 22.7368 95.2077 22.7023V22.6875L95.2152 22.6432C95.2152 22.6235 95.2239 22.6039 95.2264 22.5842C95.2289 22.5645 95.2363 22.5251 95.2413 22.4956C95.2463 22.466 95.2476 22.4636 95.2501 22.4476C95.2525 22.4316 95.2501 22.4377 95.2501 22.4328L95.2575 22.3861L95.2725 22.2962C95.2725 22.279 95.2725 22.2618 95.2787 22.2445C95.2849 22.2273 95.2874 22.1818 95.2912 22.151C95.2949 22.1203 95.2986 22.103 95.3011 22.0784C95.3036 22.0538 95.3074 22.0292 95.3111 22.0058C95.3148 21.9824 95.3111 21.959 95.3111 21.9369V21.9098C95.3111 21.8889 95.3111 21.8668 95.3173 21.8458C95.3236 21.8249 95.3173 21.7978 95.3173 21.7745C95.3173 21.7548 95.3173 21.7339 95.3236 21.7142V21.6711C95.3236 21.617 95.3236 21.564 95.3335 21.5099V21.4435C95.3329 21.4373 95.3329 21.4311 95.3335 21.425C95.3335 21.4127 95.3335 21.4016 95.3335 21.3893C95.3335 21.3032 95.3335 21.2146 95.3335 21.1284C95.3335 21.1063 95.3335 21.0854 95.3335 21.0632C95.3335 20.9512 95.3335 20.8393 95.3335 20.7297C95.3335 20.699 95.3335 20.6694 95.3335 20.6387C95.3335 20.5821 95.3335 20.5242 95.3273 20.4664C95.3273 20.4295 95.3273 20.3926 95.3186 20.3556C95.3186 20.2929 95.3111 20.2326 95.3061 20.1674C95.2986 20.0775 95.2912 19.9877 95.2812 19.8979C95.2812 19.8536 95.2712 19.8093 95.2663 19.765C95.255 19.6641 95.2426 19.5619 95.2276 19.461C95.2276 19.461 95.2276 19.461 95.2276 19.4524C95.2276 19.4438 95.2276 19.4167 95.2189 19.3983L95.2114 19.3503C95.1952 19.2543 95.1803 19.1596 95.1628 19.0648C95.1541 19.018 95.1442 18.9725 95.1342 18.927C95.1342 18.9061 95.1255 18.8851 95.1205 18.8642C95.1205 18.831 95.1068 18.799 95.0993 18.7658C95.0931 18.7387 95.0881 18.7116 95.0819 18.6846C95.0619 18.5984 95.0407 18.5135 95.0183 18.4286C94.9959 18.3437 94.9722 18.26 94.9473 18.1763C94.7996 17.6766 94.6018 17.1926 94.3568 16.7317C94.3169 16.6603 94.277 16.5902 94.2322 16.5188L94.2247 16.5053L94.1001 16.2788C94.0465 16.1853 93.9917 16.0955 93.9356 16.0044L93.9195 15.9774L93.8995 15.9429L93.8634 15.8814V15.8703L93.8335 15.8186C93.8248 15.8051 93.816 15.7928 93.8086 15.7792C93.8011 15.7657 93.7874 15.7448 93.7762 15.7288L93.7201 15.6377C93.7201 15.6279 93.7089 15.6193 93.7027 15.6094L93.6765 15.5676C93.6616 15.543 93.6479 15.5184 93.6317 15.4938C93.6237 15.479 93.6149 15.4646 93.6055 15.4507V15.4445C93.5793 15.4052 93.5519 15.367 93.5245 15.3289C93.4971 15.2907 93.4809 15.2698 93.4585 15.2415L93.4223 15.1923C93.4183 15.1883 93.415 15.1837 93.4124 15.1787C93.3601 15.1111 93.309 15.0446 93.2554 14.9782L93.213 14.924L93.1196 14.8096L93.0884 14.7702L92.9639 14.6188L92.8467 14.4712C92.8429 14.4656 92.8387 14.4603 92.8343 14.4552L92.782 14.3887V14.3826L92.9601 14.5253L93.1096 14.6484L93.147 14.6853C93.223 14.7628 93.2965 14.8416 93.3688 14.9228C93.441 15.004 93.5133 15.0877 93.5818 15.1689C93.5968 15.1849 93.6105 15.2021 93.6242 15.2193C93.6379 15.2366 93.6242 15.2193 93.6242 15.2193L93.664 15.271C93.6852 15.2993 93.7077 15.3276 93.7288 15.3572L93.7799 15.4261L93.8335 15.495C93.8871 15.5639 93.9406 15.6328 93.9917 15.7042C94.0029 15.7189 94.0116 15.7325 94.0216 15.7472C94.0323 15.7608 94.0419 15.7752 94.0503 15.7903C94.0702 15.8199 94.0901 15.8494 94.1088 15.8801L94.1512 15.9454L94.1886 16.0044C94.5637 16.5883 94.872 17.2115 95.108 17.8626C95.1379 17.9438 95.1666 18.0262 95.194 18.1087C95.2488 18.2736 95.2999 18.4409 95.346 18.6107C95.3684 18.6956 95.3908 18.7805 95.4108 18.8667C95.4182 18.8974 95.4245 18.9294 95.4319 18.9614C95.4469 19.0254 95.4619 19.0906 95.4756 19.1571C95.4756 19.1657 95.4756 19.1743 95.4756 19.1829L95.4905 19.2592C95.5017 19.3146 95.5117 19.3712 95.5217 19.4278C95.5217 19.4401 95.5217 19.4537 95.5279 19.466C95.623 19.9864 95.6751 20.5135 95.6836 21.0423C95.6893 22.7199 95.248 24.3695 94.4041 25.8254C94.348 25.9202 94.292 26.0149 94.2322 26.1085V26.106ZM95.2937 23.8209C95.2898 23.8309 95.2864 23.8412 95.2837 23.8516L95.2687 23.8959L95.2986 23.8024C95.2974 23.8123 95.2949 23.8184 95.2937 23.8233V23.8209Z" fill="#0064A7"/>
<path d="M0 11.5671H18.439C21.8851 11.5671 24.945 13.0906 26.8798 15.4483C28.2645 13.8052 29.0247 11.7361 29.029 9.59826C29.029 4.29707 24.3818 0 18.6496 0H1.86882C1.37318 0 0.897835 0.19447 0.547364 0.540629C0.196892 0.886787 0 1.35628 0 1.84582" fill="#8BFF03"/>
<path d="M0 28.9178C0 29.4074 0.196892 29.8769 0.547364 30.223C0.897835 30.5692 1.37318 30.7636 1.86882 30.7636H18.8601C24.4765 30.7636 29.029 26.5527 29.029 21.3586C29.0243 19.2019 28.2651 17.113 26.8798 15.4458C24.9824 17.7272 22.0022 19.1965 18.6496 19.1965H0" fill="#0064A7"/>
<path d="M0 19.1965H18.6496C22.0022 19.1965 24.9824 17.7199 26.8799 15.4434C24.945 13.0881 21.8851 11.5671 18.439 11.5671H0" fill="#A9A9A9"/>
</svg>
