<svg width="35" height="35" viewBox="0 0 35 35" fill="none" xmlns="http://www.w3.org/2000/svg">
<path d="M14.5833 10.2083C14.5833 10.6458 14.4375 10.9375 14.1458 11.2291L6.85417 18.5208C6.27083 19.1041 5.39583 19.1041 4.8125 18.5208C4.22917 17.9375 4.22917 17.0625 4.8125 16.4791L12.1042 9.18748C12.6875 8.60415 13.5625 8.60415 14.1458 9.18748C14.4375 9.47915 14.5833 9.77082 14.5833 10.2083Z" fill="black"/>
<path d="M14.5833 24.7917C14.5833 25.2292 14.4375 25.5208 14.1458 25.8125C13.5625 26.3958 12.6875 26.3958 12.1042 25.8125L4.8125 18.5208C4.22917 17.9375 4.22917 17.0625 4.8125 16.4792C5.39583 15.8958 6.27083 15.8958 6.85417 16.4792L14.1458 23.7708C14.4375 24.0625 14.5833 24.3542 14.5833 24.7917Z" fill="black"/>
<path d="M30.625 17.5C30.625 18.375 30.0417 18.9583 29.1667 18.9583L5.83333 18.9583C4.95833 18.9583 4.375 18.375 4.375 17.5C4.375 16.625 4.95833 16.0416 5.83333 16.0416L29.1667 16.0416C30.0417 16.0416 30.625 16.625 30.625 17.5Z" fill="black"/>
</svg>
