<svg width="126" height="45" viewBox="0 0 126 45" fill="none" xmlns="http://www.w3.org/2000/svg">
<path d="M67.6458 25.7671C67.6458 25.741 67.6458 25.7133 67.6328 25.6775C67.2089 23.019 65.9933 20.5485 64.1434 18.5861C62.2935 16.6237 59.8945 15.2597 57.2573 14.671C55.3467 14.2475 53.3661 14.2475 51.4555 14.671C48.948 15.2322 46.6533 16.4946 44.8412 18.3099C43.029 20.1251 41.7747 22.4178 41.2256 24.9185C41.17 25.1742 41.1226 25.4283 41.0801 25.6824C41.0801 25.7182 41.0801 25.7459 41.067 25.772C40.8175 27.3673 40.8596 28.9945 41.1913 30.5749C41.274 30.9817 41.3777 31.3839 41.502 31.7801C42.3395 34.5283 44.0409 36.9359 46.3557 38.6486C48.6704 40.3612 51.4762 41.2882 54.3597 41.2931C56.5209 41.2913 58.6498 40.7699 60.5655 39.7732C62.4811 38.7766 64.1269 37.3341 65.3631 35.5684C65.4018 35.1709 65.3405 34.77 65.1845 34.4021C65.0286 34.0342 64.7831 33.7108 64.4701 33.4611C64.1571 33.2115 63.7866 33.0435 63.392 32.9724C62.9975 32.9012 62.5914 32.9292 62.2104 33.0537V33.0684C62.1401 33.171 62.0714 33.2752 61.9945 33.3778C61.9797 33.3882 61.9679 33.4022 61.9602 33.4185C61.885 33.5163 61.8081 33.6058 61.7247 33.7019C61.703 33.719 61.6847 33.74 61.6708 33.7638C61.5874 33.8469 61.5072 33.9365 61.4206 34.0179C61.3966 34.0373 61.3737 34.058 61.3519 34.0798C61.2685 34.1628 61.172 34.2426 61.0821 34.3208C61.0613 34.3417 61.0382 34.3603 61.0134 34.3762C60.8891 34.4739 60.7714 34.5635 60.6471 34.6514C60.6163 34.6684 60.5882 34.6898 60.5637 34.715C60.3807 34.8438 60.1913 34.9633 59.9963 35.0733C59.9685 35.0928 59.9407 35.1075 59.9129 35.127C59.823 35.1759 59.733 35.2166 59.6431 35.2654C59.5809 35.2996 59.5188 35.3273 59.4567 35.355C59.3667 35.4039 59.2768 35.4381 59.1803 35.4853C59.1182 35.513 59.0495 35.5407 58.9792 35.5684C58.8827 35.6091 58.7928 35.6514 58.6963 35.6856C58.6276 35.7133 58.5573 35.7345 58.4886 35.7606L58.1779 35.8648C58.1076 35.886 58.0455 35.9055 57.9768 35.9202C57.8656 35.9544 57.7479 35.9886 57.6383 36.0163C57.5762 36.0374 57.5206 36.0439 57.4584 36.0651L57.0774 36.1466C57.0322 36.1571 56.9863 36.1642 56.9401 36.1677C56.794 36.2014 56.6485 36.2291 56.5035 36.2508C56.4757 36.2508 56.4544 36.2508 56.4348 36.2508C56.2059 36.285 55.9786 36.3062 55.7431 36.3192C55.6254 36.3339 55.5076 36.3469 55.3899 36.3534C55.3899 36.3534 55.3768 36.3534 55.3686 36.3534H55.2705C55.107 36.3534 54.9435 36.368 54.7799 36.368C54.4758 36.368 54.1782 36.3534 53.8806 36.3338C53.7841 36.3192 53.6876 36.3127 53.5911 36.2996C53.39 36.285 53.1971 36.2573 53.0025 36.2296C52.8955 36.2155 52.7896 36.1948 52.6852 36.1677C52.5054 36.14 52.332 36.0993 52.1587 36.0651C52.0557 36.0374 51.9576 36.0097 51.8545 35.9886C51.6747 35.9413 51.5095 35.886 51.3362 35.8371C51.2659 35.8176 51.2037 35.7899 51.135 35.7687C51.1278 35.7615 51.1191 35.7559 51.1095 35.7523C51.0999 35.7486 51.0897 35.747 51.0794 35.7475H51.0664C50.8587 35.6726 50.6576 35.5847 50.4646 35.5C50.4025 35.4723 50.3322 35.4511 50.27 35.4234C50.0289 35.314 49.7937 35.1922 49.5652 35.0586C49.4884 35.0179 49.4197 34.969 49.351 34.9283C49.1875 34.8322 49.0534 34.7345 48.9079 34.6384C48.8245 34.5765 48.7443 34.5146 48.6659 34.4527C48.5458 34.36 48.4306 34.261 48.3208 34.1563L48.0984 33.9495C47.9807 33.8322 47.863 33.7019 47.7599 33.5782C47.7109 33.5293 47.6635 33.4739 47.621 33.4267C47.4844 33.2512 47.3598 33.0667 47.2481 32.8746C47.2072 32.8062 47.1794 32.7443 47.1451 32.6824C47.0683 32.5439 47.0061 32.4071 46.944 32.2687C46.9162 32.1938 46.8884 32.1172 46.8671 32.0488C46.8136 31.9009 46.772 31.749 46.7428 31.5944C46.7428 31.5798 46.7428 31.5668 46.7298 31.5521C46.6656 31.2179 46.6214 30.8801 46.5973 30.5407H64.9903C65.7345 30.5424 66.4492 30.2506 66.9781 29.729C67.507 29.2075 67.807 28.4986 67.8126 27.7573V27.7361C67.8028 27.0767 67.747 26.4188 67.6458 25.7671ZM62.0583 24.8371C62.0599 24.9922 62.0228 25.1453 61.9503 25.2826C61.8778 25.4199 61.7722 25.5372 61.643 25.6237H61.6282C61.5987 25.6443 61.5662 25.6602 61.5318 25.671C61.5128 25.6857 61.4919 25.6977 61.4696 25.7068C61.4132 25.7288 61.3553 25.7468 61.2963 25.7606C61.2352 25.7748 61.1726 25.7819 61.1099 25.7817H47.0944C47.0752 25.7813 47.0562 25.7768 47.0388 25.7687C47.0257 25.7687 47.011 25.7606 46.9979 25.7606L46.8737 25.741C46.8312 25.7301 46.7897 25.7159 46.7494 25.6987C46.7335 25.6924 46.719 25.683 46.7069 25.671C46.5798 25.6146 46.4678 25.5291 46.38 25.4216C46.2923 25.3141 46.2311 25.1875 46.2016 25.0521C46.2098 25.0521 46.2098 25.0521 46.2098 25.0374C46.1896 24.9682 46.1802 24.8962 46.182 24.8241C46.2294 24.6254 46.2784 24.4316 46.334 24.2394C46.3684 24.1433 46.3962 24.0456 46.4305 23.956C46.4992 23.7703 46.5761 23.5847 46.6513 23.4055C46.6594 23.3843 46.6725 23.3713 46.6791 23.3501C46.7216 23.2752 46.7559 23.1873 46.7968 23.1091C46.8317 23.0277 46.8733 22.9492 46.9211 22.8746C47.8139 21.1531 49.4671 19.8094 51.5079 19.1824C51.5896 19.1547 51.6861 19.127 51.776 19.0993C51.9738 19.0383 52.1747 18.9878 52.3778 18.9479C52.4203 18.9479 52.4612 18.9283 52.5037 18.9202L53.0564 18.8387C53.0676 18.8425 53.0796 18.8425 53.0908 18.8387H53.1186C53.1316 18.8387 53.1529 18.8387 53.1676 18.8387H53.112L53.2984 18.8192H53.3606C53.3818 18.8192 53.4096 18.811 53.4374 18.811H53.4718C53.5748 18.798 53.6713 18.7915 53.7759 18.7834C53.9067 18.7834 54.0376 18.7703 54.1765 18.7703C54.5281 18.7726 54.8792 18.7955 55.228 18.8387H55.1381C55.1593 18.8387 55.1724 18.8387 55.1937 18.8387H55.2345C55.3457 18.8534 55.4553 18.8746 55.5616 18.8876L55.8183 18.9283C55.8657 18.9365 55.9213 18.956 55.9704 18.9641C56.1339 18.9983 56.2974 19.0325 56.4609 19.0798C56.5296 19.0944 56.5918 19.1221 56.6621 19.1352C56.7324 19.1482 56.7929 19.1775 56.8616 19.197C56.9303 19.2166 57.0006 19.2459 57.0693 19.2671C58.7731 19.8416 60.225 20.9856 61.1786 22.5049C61.2407 22.6009 61.2947 22.7036 61.3503 22.8013C61.3645 22.8296 61.3809 22.8568 61.3993 22.8827C61.4271 22.9316 61.4549 22.9869 61.4827 23.0342C61.5006 23.0826 61.5236 23.129 61.5514 23.1726C61.7487 23.5701 61.9086 23.9851 62.0289 24.412V24.6677C62.0406 24.7155 62.0499 24.7639 62.0567 24.8127L62.0583 24.8371Z" fill="#0064A7"/>
<path d="M96.916 25.7671C96.916 25.741 96.916 25.7133 96.903 25.6775C96.4791 23.019 95.2635 20.5485 93.4136 18.5861C91.5637 16.6237 89.1647 15.2597 86.5275 14.671C84.617 14.2475 82.6363 14.2475 80.7258 14.671C78.2182 15.2322 75.9235 16.4946 74.1114 18.3099C72.2993 20.1251 71.045 22.4178 70.4959 24.9185C70.4403 25.1742 70.3929 25.4283 70.3503 25.6824C70.3503 25.7182 70.3503 25.7459 70.3373 25.772C70.0878 27.3673 70.1299 28.9945 70.4615 30.5749C70.5443 30.9817 70.648 31.3839 70.7722 31.7801C71.6097 34.5283 73.3112 36.9359 75.6259 38.6486C77.9407 40.3612 80.7464 41.2882 83.6299 41.2931C85.7912 41.2913 87.92 40.7699 89.8357 39.7732C91.7513 38.7766 93.3971 37.3341 94.6333 35.5684C94.672 35.1709 94.6107 34.77 94.4548 34.4021C94.2988 34.0342 94.0533 33.7108 93.7403 33.4611C93.4273 33.2115 93.0568 33.0435 92.6623 32.9724C92.2677 32.9012 91.8616 32.9292 91.4806 33.0537V33.0684C91.4103 33.171 91.3416 33.2752 91.2647 33.3778C91.25 33.3882 91.2381 33.4022 91.2304 33.4185C91.1552 33.5163 91.0783 33.6058 90.9949 33.7019C90.9732 33.719 90.9549 33.74 90.941 33.7638C90.8576 33.8469 90.7774 33.9365 90.6908 34.0179C90.6668 34.0373 90.6439 34.058 90.6221 34.0798C90.5387 34.1628 90.4422 34.2426 90.3523 34.3208C90.3315 34.3417 90.3084 34.3603 90.2836 34.3762C90.1593 34.4739 90.0416 34.5635 89.9173 34.6514C89.8865 34.6684 89.8584 34.6898 89.8339 34.715C89.6509 34.8438 89.4615 34.9633 89.2665 35.0733C89.2387 35.0928 89.2109 35.1075 89.1831 35.127C89.0932 35.1759 89.0032 35.2166 88.9133 35.2654C88.8512 35.2996 88.789 35.3273 88.7269 35.355C88.6369 35.4039 88.547 35.4381 88.4505 35.4853C88.3884 35.513 88.3197 35.5407 88.2494 35.5684C88.1529 35.6091 88.063 35.6514 87.9665 35.6856C87.8978 35.7133 87.8275 35.7345 87.7588 35.7606L87.4482 35.8648C87.3778 35.886 87.3157 35.9055 87.247 35.9202C87.1358 35.9544 87.0181 35.9886 86.9085 36.0163C86.8464 36.0374 86.7908 36.0439 86.7287 36.0651L86.3477 36.1466C86.3025 36.1571 86.2566 36.1642 86.2103 36.1677C86.0653 36.2014 85.9198 36.2291 85.7737 36.2508C85.7459 36.2508 85.7246 36.2508 85.705 36.2508C85.4761 36.285 85.2488 36.3062 85.0133 36.3192C84.8956 36.3339 84.7778 36.3469 84.6601 36.3534C84.6601 36.3534 84.647 36.3534 84.6388 36.3534H84.5407C84.3772 36.3534 84.2137 36.368 84.0502 36.368C83.746 36.368 83.4484 36.3534 83.1508 36.3338C83.0543 36.3192 82.9578 36.3127 82.8614 36.2996C82.6602 36.285 82.4673 36.2573 82.2727 36.2296C82.1658 36.2155 82.0598 36.1948 81.9555 36.1677C81.7756 36.14 81.6023 36.0993 81.4289 36.0651C81.3259 36.0374 81.2278 36.0097 81.1248 35.9886C80.9449 35.9413 80.7797 35.886 80.6064 35.8371C80.5361 35.8176 80.474 35.7899 80.4053 35.7687C80.398 35.7615 80.3893 35.7559 80.3797 35.7523C80.3701 35.7486 80.3599 35.747 80.3497 35.7475H80.3366C80.1289 35.6726 79.9278 35.5847 79.7348 35.5C79.6727 35.4723 79.6024 35.4511 79.5402 35.4234C79.2992 35.314 79.0639 35.1922 78.8355 35.0586C78.7586 35.0179 78.6899 34.969 78.6213 34.9283C78.4577 34.8322 78.3237 34.7345 78.1781 34.6384C78.0947 34.5765 78.0146 34.5146 77.9361 34.4527C77.816 34.36 77.7008 34.261 77.5911 34.1563L77.3687 33.9495C77.251 33.8322 77.1332 33.7019 77.0302 33.5782C76.9811 33.5293 76.9337 33.4739 76.8912 33.4267C76.7546 33.2512 76.6301 33.0667 76.5184 32.8746C76.4775 32.8062 76.4497 32.7443 76.4154 32.6824C76.3385 32.5439 76.2764 32.4071 76.2142 32.2687C76.1864 32.1938 76.1586 32.1172 76.1374 32.0488C76.0838 31.9009 76.0423 31.749 76.0131 31.5944C76.0131 31.5798 76.0131 31.5668 76 31.5521C75.9359 31.2179 75.8916 30.8801 75.8676 30.5407H94.2605C95.0047 30.5424 95.7194 30.2506 96.2483 29.729C96.7772 29.2075 97.0772 28.4986 97.0828 27.7573V27.7361C97.073 27.0767 97.0172 26.4188 96.916 25.7671ZM91.3285 24.8371C91.3301 24.9922 91.293 25.1453 91.2205 25.2826C91.148 25.4199 91.0424 25.5372 90.9132 25.6237H90.8985C90.8689 25.6443 90.8364 25.6602 90.802 25.671C90.783 25.6857 90.7621 25.6977 90.7398 25.7068C90.6834 25.7288 90.6255 25.7468 90.5665 25.7606C90.5054 25.7748 90.4429 25.7819 90.3801 25.7817H76.3647C76.3454 25.7813 76.3265 25.7768 76.3091 25.7687C76.296 25.7687 76.2813 25.7606 76.2682 25.7606L76.1439 25.741C76.1015 25.7301 76.0599 25.7159 76.0196 25.6987C76.0037 25.6924 75.9893 25.683 75.9771 25.671C75.85 25.6146 75.7381 25.5291 75.6503 25.4216C75.5625 25.3141 75.5014 25.1875 75.4718 25.0521C75.48 25.0521 75.48 25.0521 75.48 25.0374C75.4598 24.9682 75.4504 24.8962 75.4522 24.8241C75.4996 24.6254 75.5487 24.4316 75.6043 24.2394C75.6386 24.1433 75.6664 24.0456 75.7008 23.956C75.7694 23.7703 75.8463 23.5847 75.9215 23.4055C75.9297 23.3843 75.9428 23.3713 75.9493 23.3501C75.9918 23.2752 76.0262 23.1873 76.0671 23.1091C76.1019 23.0277 76.1435 22.9492 76.1913 22.8746C77.0842 21.1531 78.7374 19.8094 80.7699 19.1824C80.8517 19.1547 80.9482 19.127 81.0381 19.0993C81.2359 19.0383 81.4367 18.9878 81.6399 18.9479C81.6824 18.9479 81.7233 18.9283 81.7658 18.9202L82.3185 18.8387C82.3296 18.8425 82.3417 18.8425 82.3528 18.8387H82.3806C82.3937 18.8387 82.415 18.8387 82.4297 18.8387H82.3741L82.5605 18.8192H82.6226C82.6439 18.8192 82.6717 18.811 82.6995 18.811H82.742C82.845 18.798 82.9415 18.7915 83.0462 18.7834C83.177 18.7834 83.3078 18.7703 83.4468 18.7703C83.7983 18.7726 84.1494 18.7955 84.4982 18.8387H84.4083C84.4295 18.8387 84.4426 18.8387 84.4639 18.8387H84.5048C84.616 18.8534 84.7255 18.8746 84.8318 18.8876L85.0885 18.9283C85.136 18.9365 85.1916 18.956 85.2406 18.9641C85.4041 18.9983 85.5677 19.0325 85.7312 19.0798C85.7999 19.0944 85.862 19.1221 85.9323 19.1352C86.0026 19.1482 86.0631 19.1775 86.1318 19.197C86.2005 19.2166 86.2708 19.2459 86.3395 19.2671C88.0434 19.8416 89.4952 20.9856 90.4488 22.5049C90.5109 22.6009 90.5649 22.7036 90.6205 22.8013C90.6348 22.8296 90.6511 22.8568 90.6695 22.8827C90.6973 22.9316 90.7251 22.9869 90.7529 23.0342C90.7708 23.0826 90.7939 23.129 90.8216 23.1726C91.0189 23.5701 91.1788 23.9851 91.2991 24.412V24.6677C91.3109 24.7155 91.3201 24.7639 91.3269 24.8127L91.3285 24.8371Z" fill="#0064A7"/>
<path d="M125.04 31.6319L125.06 31.5733C125.064 31.5595 125.069 31.5459 125.074 31.5326C125.08 31.5172 125.084 31.5014 125.087 31.4854C125.072 31.5358 125.055 31.5863 125.039 31.6368L125.04 31.6319Z" fill="white"/>
<path d="M123.601 21.1042C123.618 21.1319 123.635 21.1596 123.653 21.1857L123.603 21.1075L123.601 21.1042Z" fill="#0064A7"/>
<path d="M112.436 14.3795C104.953 14.3795 98.8801 20.4055 98.8801 27.8127C98.8801 28.1221 98.8948 28.4397 98.9145 28.7427V44.0081C98.9149 44.2713 99.0202 44.5236 99.2072 44.7096C99.3942 44.8955 99.6477 45 99.9119 45H102.291C102.552 44.9953 102.802 44.8888 102.985 44.7034C103.168 44.518 103.272 44.2684 103.272 44.0081V37.7182C105.774 39.9945 109.041 41.2528 112.43 41.2443C119.92 41.2443 125.994 35.2378 125.994 27.8127C125.994 20.3876 119.927 14.3795 112.436 14.3795ZM114.302 36.3436C114.138 36.3811 113.975 36.412 113.811 36.4397C112.552 36.6508 111.263 36.5859 110.032 36.2497C108.801 35.9135 107.658 35.314 106.683 34.493C105.709 33.672 104.925 32.6492 104.388 31.4959C103.851 30.3426 103.573 29.0865 103.573 27.8151C103.573 26.5437 103.851 25.2876 104.388 24.1343C104.925 22.981 105.709 21.9582 106.683 21.1372C107.658 20.3162 108.801 19.7167 110.032 19.3805C111.263 19.0443 112.552 18.9795 113.811 19.1905C113.975 19.2182 114.138 19.2492 114.302 19.2866C116.25 19.7175 117.993 20.7974 119.242 22.348C120.491 23.8986 121.172 25.8271 121.172 27.8151C121.172 29.8031 120.491 31.7317 119.242 33.2823C117.993 34.8329 116.25 35.9128 114.302 36.3436ZM123.68 34.5521C123.637 34.6172 123.596 34.6824 123.552 34.7475C123.533 34.7785 123.513 34.8078 123.492 34.8371C123.471 34.8664 123.462 34.8843 123.446 34.9071C123.43 34.9299 123.382 35 123.35 35.0472L123.34 35.0619C123.193 35.2671 123.039 35.4658 122.882 35.6612C122.836 35.7182 122.789 35.7703 122.741 35.8241C122.676 35.899 122.614 35.9772 122.547 36.0505C122.537 36.0635 122.525 36.0749 122.514 36.0879L122.46 36.1482L122.434 36.1775L122.403 36.2084L122.3 36.3192L122.259 36.3632L122.148 36.4772C122.058 36.57 121.964 36.6628 121.871 36.7508C121.868 36.7559 121.863 36.7603 121.858 36.7638C121.842 36.7817 121.824 36.798 121.806 36.8143C121.642 36.9576 121.494 37.0977 121.332 37.2329L121.387 37.1563L121.412 37.1335L121.435 37.1124C121.476 37.0684 121.516 37.0211 121.557 36.9739C121.598 36.9267 121.637 36.8795 121.678 36.8322C121.786 36.7019 121.894 36.5668 122.005 36.4316L122.118 36.2915C122.156 36.2459 122.193 36.1987 122.229 36.1498L122.278 36.0814C122.313 36.0358 122.345 35.9886 122.38 35.9413C122.414 35.8941 122.473 35.8143 122.519 35.7492L122.53 35.7329C122.54 35.7182 122.55 35.7052 122.558 35.6905L122.568 35.6759L122.602 35.6254L122.73 35.4381L122.798 35.3371C123.734 34.0129 124.401 32.519 124.761 30.9397C124.765 30.9269 124.769 30.9139 124.772 30.9006C124.785 30.8485 124.797 30.7948 124.81 30.7378L124.829 30.658C124.839 30.6172 124.851 30.5782 124.86 30.5374C124.86 30.5326 124.86 30.5276 124.86 30.5228C124.86 30.4821 124.877 30.443 124.887 30.4023C124.896 30.3615 124.905 30.3159 124.914 30.272L124.934 30.184C124.934 30.1384 124.952 30.0928 124.96 30.0472V30.0277L124.97 29.969C124.97 29.943 124.981 29.9169 124.985 29.8909C124.988 29.8648 124.998 29.8127 125.004 29.7736C125.011 29.7345 125.013 29.7312 125.016 29.7101C125.019 29.6889 125.016 29.697 125.016 29.6905L125.026 29.6286L125.045 29.5098C125.045 29.4869 125.045 29.4641 125.053 29.4413C125.062 29.4185 125.065 29.3583 125.07 29.3176C125.075 29.2769 125.08 29.2541 125.083 29.2215C125.086 29.1889 125.091 29.1563 125.096 29.1254C125.101 29.0944 125.096 29.0635 125.096 29.0342V28.9983C125.096 28.9707 125.096 28.9413 125.104 28.9137C125.112 28.886 125.104 28.8501 125.104 28.8192C125.104 28.7931 125.104 28.7654 125.112 28.7394V28.6824C125.112 28.6107 125.112 28.5407 125.125 28.469V28.3811C125.125 28.373 125.125 28.3648 125.125 28.3567C125.125 28.3404 125.125 28.3257 125.125 28.3094C125.125 28.1954 125.125 28.0782 125.125 27.9641C125.125 27.9348 125.125 27.9071 125.125 27.8778C125.125 27.7296 125.125 27.5814 125.125 27.4365C125.125 27.3957 125.125 27.3567 125.125 27.3159C125.125 27.241 125.125 27.1645 125.117 27.0879C125.117 27.0391 125.117 26.9902 125.106 26.9413C125.106 26.8583 125.096 26.7785 125.089 26.6922C125.08 26.5733 125.07 26.4544 125.057 26.3355C125.057 26.2769 125.044 26.2182 125.037 26.1596C125.022 26.026 125.006 25.8909 124.986 25.7573C124.986 25.7573 124.986 25.7573 124.986 25.7459C124.986 25.7345 124.986 25.6987 124.975 25.6742L124.965 25.6107C124.944 25.4837 124.924 25.3583 124.901 25.2329C124.89 25.171 124.877 25.1107 124.864 25.0505C124.864 25.0228 124.852 24.9951 124.846 24.9674C124.846 24.9234 124.828 24.8811 124.818 24.8371C124.81 24.8013 124.803 24.7654 124.795 24.7296C124.769 24.6156 124.741 24.5032 124.712 24.3909C124.682 24.2785 124.651 24.1677 124.618 24.057C124.425 23.3955 124.165 22.755 123.843 22.1449C123.791 22.0505 123.739 21.9576 123.68 21.8632L123.67 21.8453L123.506 21.5456C123.436 21.4218 123.364 21.3029 123.291 21.1824L123.269 21.1466L123.243 21.101L123.196 21.0195V21.0049L123.157 20.9365C123.145 20.9185 123.134 20.9023 123.124 20.8843C123.114 20.8664 123.096 20.8387 123.081 20.8176L123.008 20.697C123.008 20.684 122.993 20.6726 122.985 20.6596L122.951 20.6042C122.931 20.5716 122.913 20.5391 122.892 20.5065C122.881 20.4869 122.87 20.4679 122.857 20.4495V20.4413C122.823 20.3892 122.787 20.3387 122.751 20.2883C122.715 20.2378 122.694 20.2101 122.664 20.1726L122.617 20.1075C122.612 20.1022 122.607 20.0962 122.604 20.0896C122.535 20 122.468 19.912 122.398 19.8241L122.342 19.7524L122.22 19.601L122.179 19.5488L122.015 19.3485L121.861 19.1531C121.856 19.1457 121.851 19.1386 121.845 19.1319L121.776 19.0439V19.0358L122.01 19.2247L122.206 19.3876L122.256 19.4365C122.355 19.5391 122.452 19.6433 122.547 19.7508C122.641 19.8583 122.736 19.969 122.826 20.0765C122.846 20.0977 122.864 20.1205 122.882 20.1433C122.9 20.1661 122.882 20.1433 122.882 20.1433L122.934 20.2117C122.962 20.2492 122.991 20.2866 123.019 20.3257L123.086 20.4169L123.157 20.5081C123.227 20.5993 123.297 20.6905 123.364 20.785C123.379 20.8045 123.39 20.8225 123.403 20.842C123.417 20.86 123.43 20.879 123.441 20.899C123.467 20.9381 123.493 20.9772 123.518 21.0179L123.574 21.1042L123.623 21.1824C124.115 21.9552 124.52 22.78 124.829 23.6417C124.869 23.7492 124.906 23.8583 124.942 23.9674C125.014 24.1856 125.081 24.4071 125.142 24.6319C125.171 24.7443 125.201 24.8567 125.227 24.9707C125.237 25.0114 125.245 25.0537 125.255 25.0961C125.274 25.1808 125.294 25.2671 125.312 25.355C125.312 25.3664 125.312 25.3778 125.312 25.3892L125.331 25.4902C125.346 25.5635 125.359 25.6384 125.372 25.7133C125.372 25.7296 125.372 25.7475 125.38 25.7638C125.505 26.4526 125.574 27.1503 125.585 27.8501C125.592 30.0705 125.013 32.2538 123.905 34.1808C123.832 34.3062 123.758 34.4316 123.68 34.5554V34.5521ZM125.073 31.5277C125.068 31.541 125.064 31.5546 125.06 31.5684L125.04 31.627L125.08 31.5032C125.078 31.5163 125.075 31.5244 125.073 31.5309V31.5277Z" fill="#0064A7"/>
<path d="M0 15.3094H24.2012C28.7242 15.3094 32.7403 17.3257 35.2798 20.4463C37.0972 18.2716 38.0949 15.533 38.1005 12.7036C38.1005 5.6873 32.0012 0 24.4775 0H2.45282C1.80229 0 1.17841 0.257387 0.718415 0.715538C0.258421 1.17369 0 1.79507 0 2.443" fill="#8BFF03"/>
<path d="M0 38.2736C0 38.9215 0.258421 39.5429 0.718415 40.001C1.17841 40.4592 1.80229 40.7166 2.45282 40.7166H24.7539C32.1255 40.7166 38.1005 35.1433 38.1005 28.2687C38.0944 25.4142 37.0979 22.6495 35.2798 20.4429C32.7893 23.4625 28.8779 25.4071 24.4775 25.4071H0" fill="#0064A7"/>
<path d="M0 25.4071H24.4776C28.8779 25.4071 32.7894 23.4528 35.2798 20.4397C32.7403 17.3225 28.7242 15.3094 24.2012 15.3094H0" fill="#A9A9A9"/>
</svg>
